<svg width="52" height="50" viewBox="0 0 52 50" fill="none" xmlns="http://www.w3.org/2000/svg">
<path d="M21.8801 11.9149C21.8794 12.0906 21.875 12.2688 21.8668 12.4494C21.8668 12.269 21.8713 12.0908 21.8801 11.9149Z" fill="black"/>
<path d="M15.2322 33.8003C11.8014 30.866 3 24.2727 3 15.2501C3 7.55005 7.54211 3 12.7858 3C18.0295 3 22.1464 6.28931 21.8668 12.4494C21.8668 6.49884 26.7597 3 30.9536 3C35.1475 3 40.7394 5.8005 40.7394 15.2501C40.7394 24.6998 29.5614 34.5003 22.9799 36.6004" stroke="white" stroke-width="4.5" stroke-linecap="round" stroke-linejoin="round"/>
<path d="M30.9335 17.0008C23.9436 21.2008 21.8467 25.7509 21.8467 36.251C21.8467 46.7511 21.8467 42.9011 21.8467 47.1011C33.3799 44.6511 54.7052 27.8509 48.4081 7.20068" stroke="white" stroke-width="4.5" stroke-linecap="round" stroke-linejoin="round"/>
</svg>
